<?xml version="1.0" standalone="no"?>
<!DOCTYPE svg PUBLIC "-//W3C//DTD SVG 20010904//EN"
 "http://www.w3.org/TR/2001/REC-SVG-20010904/DTD/svg10.dtd">
<svg version="1.0" xmlns="http://www.w3.org/2000/svg"
 width="264" height="318" viewBox="0 0 1056.000000 1272.000000"
 preserveAspectRatio="xMidYMid meet">
<metadata>
Created by potrace 1.16, written by Peter Selinger 2001-2019
</metadata>
<g transform="translate(0.000000,1272.000000) scale(0.100000,-0.100000)"
fill="#f5a021" stroke="none">
<path d="M10440 12709 c0 -20 -58 -69 -82 -69 -14 0 -36 -15 -58 -40 -22 -25
-44 -40 -59 -40 -15 0 -43 -20 -81 -60 -53 -55 -61 -60 -101 -60 -39 0 -48 -5
-79 -40 -25 -28 -43 -40 -62 -40 -17 0 -31 -8 -38 -20 -8 -16 -21 -20 -60 -20
-39 0 -52 -4 -60 -20 -7 -13 -21 -20 -40 -20 -19 0 -33 -7 -40 -20 -7 -13 -21
-20 -40 -20 -19 0 -33 -7 -40 -20 -8 -16 -21 -20 -60 -20 -39 0 -52 -4 -60
-20 -7 -13 -21 -20 -40 -20 -19 0 -33 -7 -40 -20 -7 -13 -21 -20 -40 -20 -19
0 -33 -7 -40 -20 -9 -17 -21 -20 -80 -20 -59 0 -71 -3 -80 -20 -8 -16 -21 -20
-60 -20 -39 0 -52 -4 -60 -20 -7 -13 -21 -20 -40 -20 -19 0 -33 -7 -40 -20 -9
-17 -21 -20 -80 -20 -59 0 -71 -3 -80 -20 -8 -16 -21 -20 -60 -20 -39 0 -52
-4 -60 -20 -8 -16 -21 -20 -60 -20 -39 0 -52 -4 -60 -20 -9 -18 -21 -20 -100
-20 -79 0 -91 -2 -100 -20 -8 -16 -21 -20 -60 -20 -39 0 -52 -4 -60 -20 -10
-18 -21 -20 -140 -20 -119 0 -130 -2 -140 -20 -7 -13 -21 -20 -40 -20 -19 0
-33 -7 -40 -20 -8 -16 -21 -20 -60 -20 -39 0 -52 -4 -60 -20 -8 -16 -21 -20
-60 -20 -39 0 -52 -4 -60 -20 -7 -13 -21 -20 -40 -20 -19 0 -33 -7 -40 -20 -7
-13 -21 -20 -40 -20 -19 0 -33 -7 -40 -20 -7 -13 -21 -20 -40 -20 -19 0 -33
-7 -40 -20 -7 -13 -21 -20 -40 -20 -19 0 -33 -7 -40 -20 -7 -13 -21 -20 -40
-20 -19 0 -33 -7 -40 -20 -7 -13 -21 -20 -40 -20 -19 0 -33 -7 -40 -20 -7 -12
-21 -20 -38 -20 -19 0 -37 -12 -62 -40 -25 -28 -43 -40 -62 -40 -17 0 -31 -8
-38 -20 -7 -12 -21 -20 -38 -20 -19 0 -37 -12 -62 -40 -25 -28 -43 -40 -62
-40 -17 0 -31 -8 -38 -20 -7 -12 -21 -20 -38 -20 -19 0 -37 -12 -62 -40 -23
-26 -44 -40 -60 -40 -16 0 -37 -14 -60 -40 -25 -28 -43 -40 -62 -40 -17 0 -31
-8 -38 -20 -7 -12 -21 -20 -38 -20 -19 0 -37 -12 -62 -40 -25 -28 -43 -40 -62
-40 -17 0 -31 -8 -38 -20 -7 -12 -21 -20 -38 -20 -19 0 -37 -12 -62 -40 -23
-26 -44 -40 -60 -40 -16 0 -37 -14 -60 -40 -23 -26 -44 -40 -60 -40 -16 0 -37
-14 -60 -40 -25 -28 -43 -40 -62 -40 -17 0 -31 -8 -38 -20 -7 -13 -21 -20 -40
-20 -19 0 -33 -7 -40 -20 -7 -12 -21 -20 -38 -20 -19 0 -37 -12 -62 -40 -21
-24 -44 -40 -58 -40 -15 0 -47 -24 -92 -70 -66 -65 -70 -72 -70 -114 0 -35 -5
-48 -20 -56 -19 -10 -20 -21 -20 -200 0 -179 -1 -190 -20 -200 -16 -8 -20 -21
-20 -60 0 -39 -4 -52 -20 -60 -18 -9 -20 -21 -20 -100 0 -79 -2 -91 -20 -100
-18 -9 -20 -21 -20 -100 0 -79 -2 -91 -20 -100 -19 -10 -20 -21 -20 -260 0
-239 1 -250 20 -260 19 -10 20 -21 20 -240 0 -219 1 -230 20 -240 19 -10 20
-21 20 -200 0 -179 1 -190 20 -200 17 -9 20 -21 20 -80 0 -59 3 -71 20 -80 19
-10 20 -21 20 -258 l0 -247 -40 -35 c-28 -25 -40 -43 -40 -62 0 -17 -8 -31
-20 -38 -12 -7 -20 -21 -20 -38 0 -19 -12 -37 -40 -62 -26 -23 -40 -44 -40
-60 0 -16 -14 -37 -40 -60 -28 -25 -40 -43 -40 -62 0 -17 -8 -31 -20 -38 -13
-7 -20 -21 -20 -40 0 -19 -7 -33 -20 -40 -16 -8 -20 -21 -20 -60 0 -39 -4 -52
-20 -60 -12 -6 -20 -21 -20 -36 0 -27 -46 -84 -67 -84 -9 0 -13 21 -13 75 0
64 -3 76 -20 85 -18 10 -20 21 -20 140 0 119 -2 130 -20 140 -17 9 -20 21 -20
80 0 59 -3 71 -20 80 -16 8 -20 21 -20 60 0 39 -4 52 -20 60 -16 8 -20 21 -20
60 0 39 -4 52 -20 60 -16 8 -20 21 -20 60 0 39 -4 52 -20 60 -16 8 -20 21 -20
60 0 39 -4 52 -20 60 -16 8 -20 21 -20 60 0 39 -4 52 -20 60 -17 9 -20 21 -20
80 0 59 -3 71 -20 80 -18 9 -20 21 -20 100 0 79 -2 91 -20 100 -19 10 -20 21
-20 300 0 279 1 290 20 300 18 9 20 21 20 100 0 79 2 91 20 100 17 9 20 21 20
80 0 59 3 71 20 80 16 8 20 21 20 60 0 39 4 52 20 60 16 8 20 21 20 60 0 39 4
52 20 60 12 7 20 21 20 38 0 19 12 37 40 62 28 25 40 43 40 62 0 17 8 31 20
38 13 7 20 21 20 40 0 19 7 33 20 40 13 7 20 21 20 40 0 19 7 33 20 40 12 7
20 21 20 38 0 19 12 37 40 62 26 23 40 44 40 60 0 16 14 37 40 60 26 23 40 44
40 60 0 16 14 37 40 60 28 25 40 43 40 63 0 15 4 27 9 27 14 0 71 60 71 75 0
23 -26 18 -55 -10 -14 -14 -25 -28 -25 -30 0 -3 -54 -59 -120 -125 -78 -78
-120 -127 -120 -140 0 -14 -30 -51 -80 -100 -55 -53 -80 -86 -80 -102 0 -14
-15 -36 -40 -58 -25 -22 -40 -44 -40 -58 0 -16 -25 -49 -80 -102 -55 -53 -80
-86 -80 -102 0 -14 -15 -36 -40 -58 -28 -25 -40 -43 -40 -62 0 -17 -8 -31 -20
-38 -13 -7 -20 -21 -20 -40 0 -19 -7 -33 -20 -40 -13 -7 -20 -21 -20 -40 0
-19 -7 -33 -20 -40 -12 -7 -20 -21 -20 -38 0 -19 -12 -37 -40 -62 -28 -25 -40
-43 -40 -62 0 -17 -8 -31 -20 -38 -13 -7 -20 -21 -20 -40 0 -19 -7 -33 -20
-40 -13 -7 -20 -21 -20 -40 0 -19 -7 -33 -20 -40 -13 -7 -20 -21 -20 -40 0
-19 -7 -33 -20 -40 -16 -8 -20 -21 -20 -58 0 -42 -4 -51 -40 -82 -36 -31 -40
-40 -40 -82 0 -37 -4 -50 -20 -58 -12 -7 -20 -21 -20 -38 0 -19 -12 -37 -40
-62 -39 -34 -40 -36 -40 -102 0 -57 -3 -69 -20 -78 -17 -9 -20 -21 -20 -80 0
-59 -3 -71 -20 -80 -19 -10 -20 -21 -20 -200 0 -179 1 -190 20 -200 17 -9 20
-21 20 -80 0 -59 3 -71 20 -80 17 -9 20 -21 20 -80 0 -59 3 -71 20 -80 16 -8
20 -21 20 -60 0 -39 4 -52 20 -60 13 -7 20 -21 20 -40 0 -19 7 -33 20 -40 13
-7 20 -21 20 -40 0 -19 7 -33 20 -40 16 -8 20 -21 20 -60 0 -39 4 -52 20 -60
16 -8 20 -21 20 -60 0 -39 4 -52 20 -60 17 -9 20 -21 20 -80 0 -59 3 -71 20
-80 17 -9 20 -21 20 -80 0 -59 3 -71 20 -80 17 -9 20 -21 20 -80 0 -59 3 -71
20 -80 20 -10 20 -21 20 -480 0 -459 0 -470 -20 -480 -16 -8 -20 -21 -20 -60
0 -39 -4 -52 -20 -60 -13 -7 -20 -21 -20 -40 0 -19 -7 -33 -20 -40 -13 -7 -20
-21 -20 -40 0 -19 -7 -33 -20 -40 -13 -7 -20 -21 -20 -40 0 -19 -7 -33 -20
-40 -13 -7 -20 -21 -20 -40 0 -19 -7 -33 -20 -40 -16 -8 -20 -21 -20 -60 0
-39 -4 -52 -20 -60 -12 -7 -20 -21 -20 -38 0 -19 -12 -37 -40 -62 -36 -31 -40
-40 -40 -82 0 -37 -4 -50 -20 -58 -16 -8 -20 -21 -20 -60 0 -39 -4 -52 -19
-60 -12 -6 -21 -23 -23 -43 -3 -29 -6 -32 -38 -32 l-35 0 -3 72 c-2 60 -6 75
-22 83 -18 10 -20 22 -20 140 0 119 -2 130 -20 140 -18 10 -20 21 -20 120 0
99 -2 110 -20 120 -13 7 -20 21 -20 40 0 19 -7 33 -20 40 -17 9 -20 21 -20 80
0 59 -3 71 -20 80 -16 8 -20 21 -20 60 0 39 -4 52 -20 60 -13 7 -20 21 -20 40
0 19 -7 33 -20 40 -13 7 -20 21 -20 40 0 19 -7 33 -20 40 -13 7 -20 21 -20 40
0 19 -7 33 -20 40 -12 7 -20 21 -20 38 0 19 -12 37 -40 62 -25 22 -40 44 -40
59 0 15 -20 43 -60 81 -43 41 -60 65 -60 84 0 15 -8 30 -20 36 -13 7 -20 21
-20 40 0 19 -7 33 -20 40 -13 7 -20 21 -20 40 0 19 -7 33 -20 40 -18 10 -20
21 -20 140 0 119 -2 130 -20 140 -27 14 -26 57 2 79 12 10 18 23 14 29 -13 22
-57 13 -87 -17 -23 -24 -29 -38 -29 -75 0 -35 -5 -48 -20 -56 -13 -7 -20 -21
-20 -40 0 -19 -7 -33 -20 -40 -13 -7 -20 -21 -20 -40 0 -19 -7 -33 -20 -40
-16 -8 -20 -21 -20 -60 0 -39 -4 -52 -20 -60 -13 -7 -20 -21 -20 -40 0 -19 -7
-33 -20 -40 -18 -10 -20 -21 -20 -140 0 -119 2 -130 20 -140 16 -8 20 -21 20
-60 0 -39 4 -52 20 -60 13 -7 20 -21 20 -40 0 -19 7 -33 20 -40 12 -7 20 -21
20 -38 0 -19 12 -37 40 -62 25 -22 40 -44 40 -59 0 -15 20 -43 60 -81 43 -41
60 -65 60 -84 0 -15 8 -30 20 -36 13 -7 20 -21 20 -40 0 -19 7 -33 20 -40 13
-7 20 -21 20 -40 0 -19 7 -33 20 -40 17 -9 20 -21 20 -80 0 -59 3 -71 20 -80
16 -8 20 -21 20 -60 0 -39 4 -52 20 -60 13 -7 20 -21 20 -40 0 -19 7 -33 20
-40 17 -9 20 -21 20 -80 0 -59 3 -71 20 -80 17 -9 20 -21 20 -80 0 -59 3 -71
20 -80 13 -7 20 -21 20 -40 0 -19 7 -33 20 -40 17 -9 20 -21 20 -80 0 -59 3
-71 20 -80 13 -7 20 -21 20 -40 0 -19 7 -33 20 -40 13 -7 20 -21 20 -40 0 -19
7 -33 20 -40 18 -10 20 -21 20 -120 0 -98 -2 -110 -19 -120 -15 -8 -21 -23
-23 -63 l-3 -52 -35 0 c-31 0 -35 3 -38 30 -3 19 -18 43 -43 66 -22 20 -39 45
-39 58 0 32 -291 321 -324 321 -15 0 -30 8 -36 20 -7 13 -21 20 -40 20 -19 0
-33 7 -40 20 -7 13 -21 20 -40 20 -19 0 -33 7 -40 20 -8 16 -21 20 -60 20 -39
0 -51 4 -60 20 -10 19 -19 21 -83 18 l-72 -3 -3 -48 c-3 -46 -1 -51 37 -86 24
-22 41 -47 41 -60 0 -15 44 -66 140 -161 99 -98 140 -146 140 -162 0 -14 15
-36 40 -58 28 -25 40 -43 40 -62 0 -17 8 -31 20 -38 16 -8 20 -21 20 -60 0
-39 4 -52 20 -60 19 -10 20 -21 20 -160 0 -139 -1 -150 -20 -160 -16 -8 -20
-21 -20 -59 0 -39 -4 -52 -23 -65 l-22 -16 22 -16 c13 -9 23 -27 23 -41 0 -31
51 -83 80 -83 14 0 44 -23 80 -60 41 -43 65 -60 84 -60 15 0 30 -8 36 -20 7
-12 21 -20 38 -20 19 0 37 -12 62 -40 31 -36 40 -40 82 -40 37 0 50 -4 58 -20
7 -13 21 -20 40 -20 19 0 33 -7 40 -20 9 -17 21 -20 80 -20 59 0 71 -3 80 -20
10 -19 19 -20 123 -18 l112 3 3 28 c5 39 251 287 284 287 14 0 37 16 58 40 25
28 43 40 62 40 17 0 31 8 38 20 7 13 21 20 40 20 19 0 33 7 40 20 7 13 21 20
40 20 19 0 33 7 40 20 8 16 21 20 60 20 39 0 52 4 60 20 7 13 21 20 40 20 19
0 33 7 40 20 8 16 21 20 58 20 42 0 51 4 82 40 25 28 43 40 62 40 17 0 31 8
38 20 6 12 21 20 36 20 19 0 43 17 84 60 35 37 66 60 79 60 13 0 49 27 92 70
69 69 70 71 67 118 l-3 47 -52 3 c-44 3 -53 0 -63 -17 -10 -20 -19 -21 -280
-21 -259 0 -270 -1 -280 -20 -9 -18 -21 -20 -100 -20 -79 0 -91 -2 -100 -20
-10 -19 -21 -20 -160 -20 -139 0 -150 -1 -160 -20 -8 -16 -21 -20 -57 -20 -41
0 -50 -4 -83 -40 l-38 -41 -68 3 -69 3 -3 32 c-2 24 2 34 17 43 14 7 21 21 21
40 0 19 7 33 20 40 16 8 20 21 20 60 0 39 4 52 20 60 13 7 20 21 20 40 0 19 7
33 20 40 16 8 20 21 20 60 0 39 4 52 20 60 13 7 20 21 20 40 0 19 7 33 20 40
16 8 20 21 20 60 0 39 4 52 20 60 13 7 20 21 20 40 0 19 7 33 20 40 16 8 20
21 20 60 0 39 4 52 20 60 13 7 20 21 20 40 0 19 7 33 20 40 13 7 20 21 20 40
0 19 7 33 20 40 13 7 20 21 20 40 0 19 7 33 20 40 12 6 20 21 20 36 0 27 46
84 67 84 9 0 13 -18 13 -55 0 -44 -4 -56 -20 -65 -13 -7 -20 -21 -20 -40 0
-19 -7 -33 -20 -40 -17 -9 -20 -21 -20 -80 0 -59 -3 -71 -20 -80 -17 -9 -20
-21 -20 -80 0 -59 -3 -71 -20 -80 -13 -7 -20 -21 -20 -40 0 -19 -7 -33 -20
-40 -19 -10 -20 -19 -18 -103 3 -78 6 -92 21 -95 13 -3 17 3 17 27 0 27 23 55
170 201 112 112 177 170 191 170 13 0 50 30 99 80 53 55 86 80 102 80 14 0 36
15 58 40 22 25 44 40 59 40 15 0 43 20 81 60 41 43 65 60 84 60 15 0 30 8 36
20 8 16 21 20 58 20 42 0 51 4 82 40 25 28 43 40 62 40 17 0 31 8 38 20 10 19
21 20 160 20 139 0 150 1 160 20 10 19 21 20 220 20 199 0 210 1 220 20 9 18
21 20 100 20 79 0 91 2 100 20 7 13 21 20 40 20 19 0 33 7 40 20 7 13 21 20
40 20 19 0 33 7 40 20 6 12 21 20 36 20 33 0 204 169 204 202 0 14 16 37 40
58 28 25 40 43 40 62 0 17 8 31 20 38 12 7 20 21 20 38 0 19 12 37 40 62 28
25 40 43 40 62 0 17 8 31 20 38 13 7 20 21 20 40 0 19 7 33 20 40 12 7 20 21
20 38 0 19 12 37 40 62 26 22 40 44 40 59 0 15 15 37 41 61 24 22 39 42 35 49
-4 6 -29 11 -56 11 -39 0 -52 -4 -60 -20 -8 -16 -21 -20 -60 -20 -39 0 -52 -4
-60 -20 -8 -16 -21 -20 -60 -20 -39 0 -52 -4 -60 -20 -8 -16 -21 -20 -60 -20
-39 0 -52 -4 -60 -20 -7 -13 -21 -20 -40 -20 -19 0 -33 -7 -40 -20 -10 -18
-21 -20 -120 -20 -99 0 -110 -2 -120 -20 -9 -18 -21 -20 -100 -20 -79 0 -91
-2 -100 -20 -10 -19 -21 -20 -160 -20 -139 0 -150 -1 -160 -20 -10 -19 -21
-20 -220 -20 -199 0 -210 -1 -220 -20 -9 -17 -21 -20 -80 -20 -60 0 -71 -3
-80 -20 -10 -19 -19 -21 -83 -18 l-72 3 0 35 c0 32 3 35 32 38 20 2 37 11 43
23 7 12 21 19 40 19 19 0 33 7 40 20 8 16 21 20 60 20 39 0 52 4 60 20 8 16
21 20 60 20 39 0 52 4 60 20 9 17 21 20 80 20 59 0 71 3 80 20 10 18 21 20
120 20 99 0 110 2 120 20 9 17 21 20 80 20 59 0 71 3 80 20 8 16 21 20 60 20
39 0 52 4 60 20 9 18 21 20 100 20 79 0 91 2 100 20 8 16 21 20 60 20 39 0 52
4 60 20 8 16 21 20 60 20 39 0 52 4 60 20 9 18 21 20 100 20 79 0 91 2 100 20
8 16 21 20 60 20 39 0 52 4 60 20 7 13 21 20 40 20 19 0 33 7 40 20 7 13 21
20 40 20 19 0 33 7 40 20 7 13 21 20 40 20 19 0 33 7 40 20 7 13 21 20 40 20
19 0 33 7 40 20 7 13 21 20 40 20 19 0 33 7 40 20 7 12 21 20 38 20 19 0 37
12 62 40 23 26 44 40 60 40 16 0 37 14 60 40 23 26 44 40 60 40 16 0 37 14 60
40 23 26 44 40 60 40 16 0 37 14 60 40 22 25 44 40 58 40 16 0 54 31 122 100
62 63 106 100 119 100 30 0 641 612 641 641 0 13 24 44 60 79 40 38 60 66 60
81 0 15 15 37 40 59 26 23 40 44 40 60 0 16 14 37 40 60 26 23 40 44 40 60 0
16 14 37 40 60 28 25 40 43 40 62 0 17 8 31 20 38 13 7 20 21 20 40 0 19 7 33
20 40 13 7 20 21 20 40 0 19 7 33 20 40 13 7 20 21 20 40 0 19 7 33 20 40 13
7 20 21 20 40 0 19 7 33 20 40 12 7 20 21 20 38 0 19 12 37 40 62 28 25 40 43
40 62 0 17 8 31 20 38 16 8 20 21 20 60 0 39 4 52 20 60 13 7 20 21 20 40 0
19 7 33 20 40 13 7 20 21 20 40 0 19 7 33 20 40 13 7 20 21 20 40 0 19 7 33
20 40 16 8 20 21 20 60 0 39 4 52 20 60 16 8 20 21 20 60 0 39 4 52 20 60 13
7 20 21 20 40 0 19 7 33 20 40 16 8 20 21 20 60 0 39 4 52 20 60 13 7 20 21
20 40 0 19 7 33 20 40 16 8 20 21 20 60 0 39 4 52 20 60 13 7 20 21 20 40 0
19 7 33 20 40 13 7 20 21 20 40 0 19 7 33 20 40 13 7 20 21 20 40 0 19 7 33
20 40 16 8 20 21 20 60 0 39 4 52 20 60 16 8 20 21 20 60 0 39 4 52 20 60 16
8 20 21 20 60 0 39 4 52 20 60 13 7 20 21 20 40 0 19 7 33 20 40 16 8 20 21
20 60 0 39 4 52 20 60 16 8 20 21 20 60 0 39 4 52 20 60 17 9 20 21 20 80 0
59 3 71 20 80 17 9 20 21 20 80 0 59 3 71 20 80 17 9 20 21 20 80 0 59 3 71
20 80 18 9 20 21 20 100 0 79 2 91 20 100 19 10 20 21 20 220 0 199 1 210 20
220 18 10 20 21 20 120 0 99 2 110 20 120 19 10 20 21 20 160 0 139 1 150 20
160 18 10 20 21 20 140 0 119 2 130 20 140 18 9 20 21 20 100 0 79 2 91 20
100 19 10 20 21 20 161 0 142 1 151 20 156 18 5 20 14 20 104 l0 99 -60 0
c-36 0 -60 -4 -60 -11z m-242 -606 c2 -84 1 -93 -18 -103 -18 -10 -20 -20 -20
-120 0 -99 -2 -110 -20 -120 -18 -9 -20 -21 -20 -100 0 -79 -2 -91 -20 -100
-13 -7 -20 -21 -20 -40 0 -19 -7 -33 -20 -40 -16 -8 -20 -21 -20 -60 0 -39 -4
-52 -20 -60 -13 -7 -20 -21 -20 -40 0 -19 -7 -33 -20 -40 -13 -7 -20 -21 -20
-40 0 -19 -7 -33 -20 -40 -13 -7 -20 -21 -20 -40 0 -19 -7 -33 -20 -40 -12 -7
-20 -21 -20 -38 0 -19 -12 -37 -40 -62 -25 -22 -40 -44 -40 -59 0 -15 -20 -43
-60 -81 -36 -35 -60 -66 -60 -79 0 -29 -252 -281 -281 -281 -13 0 -44 -24 -79
-60 -36 -38 -66 -60 -80 -60 -14 0 -49 -28 -100 -80 -53 -55 -86 -80 -102 -80
-14 0 -36 -15 -58 -40 -25 -28 -43 -40 -62 -40 -17 0 -31 -8 -38 -20 -7 -12
-21 -20 -38 -20 -19 0 -37 -12 -62 -40 -31 -35 -40 -40 -80 -40 -40 0 -49 -5
-80 -40 -25 -28 -43 -40 -62 -40 -17 0 -31 -8 -38 -20 -8 -16 -21 -20 -60 -20
-39 0 -52 -4 -60 -20 -7 -13 -21 -20 -40 -20 -19 0 -33 -7 -40 -20 -8 -16 -21
-20 -60 -20 -39 0 -52 -4 -60 -20 -9 -17 -21 -20 -80 -20 -59 0 -71 -3 -80
-20 -7 -13 -21 -20 -40 -20 -19 0 -33 -7 -40 -20 -8 -16 -21 -20 -60 -20 -39
0 -52 -4 -60 -20 -7 -13 -21 -20 -40 -20 -19 0 -33 -7 -40 -20 -7 -13 -21 -20
-40 -20 -19 0 -33 -7 -40 -20 -7 -13 -21 -20 -40 -20 -19 0 -33 -7 -40 -20 -7
-12 -21 -20 -38 -20 -16 0 -32 -8 -40 -20 -24 -38 -42 -25 -42 32 0 47 3 54
39 87 25 23 40 47 43 66 2 25 8 31 32 33 35 4 86 52 86 81 0 29 492 521 521
521 13 0 50 30 99 80 57 59 85 80 104 80 15 0 30 8 36 19 6 12 23 21 43 23 28
3 33 7 37 38 4 30 9 35 34 38 22 3 67 42 187 163 102 102 165 159 179 159 28
0 680 652 680 680 0 27 93 120 120 120 27 0 120 93 120 120 0 14 42 63 120
140 87 86 120 125 120 143 0 34 8 38 65 35 l50 -3 3 -92z m-922 -198 c3 -8 14
-17 25 -20 25 -8 25 -41 0 -48 -14 -3 -21 -15 -23 -38 -3 -30 -7 -35 -38 -39
-31 -4 -35 -9 -38 -37 -2 -20 -11 -37 -23 -43 -11 -7 -19 -21 -19 -38 0 -19
-12 -37 -40 -62 -24 -21 -40 -44 -40 -58 0 -30 -410 -442 -441 -442 -13 0 -57
-37 -119 -100 -64 -65 -106 -100 -120 -100 -14 0 -56 -35 -120 -100 -64 -65
-106 -100 -120 -100 -14 0 -50 -29 -100 -80 -49 -50 -86 -80 -99 -80 -29 0
-681 -652 -681 -681 0 -13 -37 -57 -100 -119 -64 -64 -100 -106 -100 -120 0
-14 -41 -62 -119 -139 -89 -88 -120 -126 -123 -147 -2 -24 -8 -30 -32 -32 -36
-4 -86 -53 -86 -84 0 -14 -15 -36 -40 -58 -25 -22 -40 -44 -40 -58 0 -16 -31
-54 -100 -122 -74 -73 -100 -105 -100 -124 0 -15 -8 -30 -20 -36 -12 -6 -20
-21 -20 -36 0 -19 -17 -43 -60 -84 -40 -38 -60 -66 -60 -81 0 -15 -15 -37 -40
-59 -28 -25 -40 -43 -40 -62 0 -17 -8 -31 -19 -38 -12 -6 -21 -23 -23 -43 -4
-46 -46 -50 -88 -8 l-30 29 0 386 c0 375 1 386 20 396 18 10 20 21 20 120 0
99 2 110 20 120 17 9 20 21 20 80 0 59 3 71 20 80 16 8 20 21 20 60 0 39 4 52
20 60 16 8 20 21 20 60 0 39 4 52 20 60 13 7 20 21 20 40 0 19 7 33 20 40 16
9 20 21 20 65 0 35 4 55 12 55 6 0 33 -22 59 -49 l48 -50 3 -108 c2 -88 6
-108 18 -108 12 0 16 16 18 72 2 60 6 75 22 83 18 9 20 22 20 100 0 79 2 91
20 100 16 8 20 21 20 60 0 39 4 52 20 60 16 8 20 21 20 60 0 39 4 52 20 60 17
9 20 21 20 78 0 66 1 68 40 102 28 25 40 43 40 62 0 17 8 31 20 38 12 7 20 21
20 38 0 19 12 37 40 62 24 21 40 44 40 58 0 31 291 322 322 322 14 0 37 16 58
40 23 26 44 40 60 40 16 0 37 14 60 40 25 28 43 40 62 40 17 0 31 8 38 20 7
12 21 20 38 20 19 0 37 12 62 40 31 36 40 40 82 40 37 0 50 4 58 20 7 13 21
20 40 20 19 0 33 7 40 21 10 17 19 20 63 17 l52 -3 3 -48 c3 -46 1 -51 -37
-86 -26 -24 -41 -47 -41 -62 0 -15 -14 -37 -40 -59 -28 -25 -40 -43 -40 -62 0
-17 -8 -31 -20 -38 -16 -8 -20 -21 -20 -60 0 -39 -4 -52 -20 -60 -16 -8 -20
-21 -20 -57 0 -36 -5 -51 -25 -69 -29 -27 -30 -33 -12 -59 18 -23 37 -11 37
23 0 19 12 37 40 61 29 25 40 43 40 63 0 17 7 31 20 38 12 7 20 21 20 38 0 19
12 37 40 62 26 23 40 44 40 60 0 16 14 37 40 60 24 21 40 44 40 58 0 30 211
242 241 242 13 0 44 24 79 60 41 43 65 60 84 60 15 0 30 8 36 20 7 13 21 20
40 20 19 0 33 7 40 20 7 13 21 20 40 20 19 0 33 7 40 20 8 16 21 20 60 20 39
0 52 4 60 20 9 18 21 20 100 20 79 0 91 2 100 20 8 16 21 20 60 20 39 0 52 4
60 20 8 16 21 20 60 20 39 0 52 4 60 20 8 16 21 20 60 20 39 0 52 4 60 20 9
16 21 20 61 20 34 0 51 -4 55 -15z m682 -1542 c3 -64 1 -73 -18 -83 -17 -9
-20 -20 -20 -80 0 -59 -3 -71 -20 -80 -17 -9 -20 -21 -20 -80 0 -59 -3 -71
-20 -80 -13 -7 -20 -21 -20 -40 0 -19 -7 -33 -20 -40 -16 -8 -20 -21 -20 -60
0 -39 -4 -52 -20 -60 -16 -8 -20 -21 -20 -60 0 -39 -4 -52 -20 -60 -13 -7 -20
-21 -20 -40 0 -19 -7 -33 -20 -40 -13 -7 -20 -21 -20 -40 0 -19 -7 -33 -20
-40 -16 -8 -20 -21 -20 -60 0 -39 -4 -52 -20 -60 -12 -7 -20 -21 -20 -38 0
-19 -12 -37 -40 -62 -26 -23 -40 -44 -40 -60 0 -16 -14 -37 -40 -60 -25 -22
-40 -44 -40 -58 0 -16 -25 -49 -80 -102 -50 -49 -80 -86 -80 -99 0 -29 -172
-201 -201 -201 -13 0 -44 -23 -79 -60 -41 -43 -65 -60 -84 -60 -15 0 -30 -8
-36 -20 -7 -13 -21 -20 -40 -20 -19 0 -33 -7 -40 -20 -7 -13 -21 -20 -40 -20
-19 0 -33 -7 -40 -20 -7 -13 -21 -20 -40 -20 -19 0 -33 -7 -40 -20 -7 -13 -21
-20 -40 -20 -19 0 -33 -7 -40 -20 -7 -13 -21 -20 -40 -20 -19 0 -33 -7 -40
-20 -8 -16 -21 -20 -60 -20 -39 0 -52 -4 -60 -20 -8 -16 -21 -20 -60 -20 -39
0 -52 -4 -60 -20 -8 -16 -21 -20 -60 -20 -39 0 -52 -4 -60 -20 -9 -17 -21 -20
-80 -20 -59 0 -71 -3 -80 -20 -9 -17 -21 -20 -80 -20 -59 0 -71 -3 -80 -20 -9
-17 -21 -20 -80 -20 -59 0 -71 -3 -80 -20 -10 -20 -21 -20 -520 -20 -499 0
-510 0 -520 20 -9 17 -21 20 -81 20 -52 0 -71 4 -75 15 -3 8 -14 17 -25 20
-25 8 -24 41 1 48 14 4 20 14 20 34 0 20 11 38 40 63 26 23 40 44 40 60 0 16
14 37 40 60 26 23 40 44 40 60 0 16 14 37 40 60 25 22 40 44 40 59 0 15 20 43
60 81 40 38 60 66 60 81 0 15 15 37 40 59 26 23 40 44 40 60 0 16 14 37 40 60
24 21 40 44 40 58 0 15 30 52 90 112 l89 90 105 0 c96 0 105 2 111 20 8 26 29
25 49 -2 l15 -23 20 23 c18 21 26 22 165 22 135 0 146 1 156 20 10 19 21 20
200 20 179 0 190 1 200 20 9 18 21 20 100 20 79 0 91 2 100 20 7 13 21 20 40
20 19 0 33 7 40 20 8 16 21 20 60 20 39 0 52 4 60 20 8 16 21 20 58 20 42 0
51 4 82 40 31 36 40 40 82 40 37 0 50 4 58 20 7 12 21 20 38 20 19 0 37 12 62
40 22 25 44 40 59 40 15 0 43 20 81 60 37 38 66 60 80 60 14 0 43 22 79 59 40
41 66 60 87 63 25 3 30 8 34 38 4 30 10 36 35 40 24 4 84 59 265 242 210 212
238 237 265 235 l30 -2 3 -72z m-1082 -2378 c3 -8 14 -17 25 -20 25 -8 24 -41
-1 -48 -15 -4 -20 -14 -20 -36 0 -20 -7 -34 -20 -41 -12 -7 -20 -21 -20 -38 0
-19 -12 -37 -40 -62 -28 -25 -40 -43 -40 -62 0 -17 -8 -31 -20 -38 -12 -7 -20
-21 -20 -38 0 -19 -12 -37 -40 -62 -26 -23 -40 -44 -40 -60 0 -16 -14 -37 -40
-60 -24 -21 -40 -44 -40 -58 0 -30 -131 -162 -161 -162 -13 0 -50 -30 -99 -80
-53 -55 -86 -80 -102 -80 -14 0 -36 -15 -58 -40 -23 -26 -44 -40 -60 -40 -16
0 -37 -14 -60 -40 -25 -28 -43 -40 -62 -40 -17 0 -31 -8 -38 -20 -7 -13 -21
-20 -40 -20 -19 0 -33 -7 -40 -20 -9 -17 -21 -20 -80 -20 -59 0 -71 -3 -80
-20 -8 -16 -21 -20 -60 -20 -39 0 -52 -4 -60 -20 -7 -13 -21 -20 -40 -20 -19
0 -33 -7 -40 -20 -8 -16 -21 -20 -60 -20 -39 0 -52 -4 -60 -20 -9 -17 -21 -20
-80 -20 -59 0 -71 -3 -80 -20 -8 -16 -21 -20 -60 -20 -39 0 -52 -4 -60 -20 -9
-17 -21 -20 -80 -20 -59 0 -71 -3 -80 -20 -9 -18 -21 -20 -100 -20 -79 0 -91
-2 -100 -20 -9 -17 -21 -20 -80 -20 -59 0 -71 -3 -80 -20 -8 -16 -21 -20 -60
-20 -39 0 -52 -4 -60 -20 -9 -17 -21 -20 -80 -20 -59 0 -71 -3 -80 -20 -8 -16
-21 -20 -60 -20 -39 0 -52 -4 -60 -20 -8 -16 -21 -20 -60 -20 -39 0 -52 -4
-60 -20 -8 -16 -21 -20 -58 -20 -42 0 -51 -4 -82 -40 -25 -28 -43 -40 -62 -40
-17 0 -31 -8 -38 -20 -8 -16 -21 -20 -60 -20 -39 0 -52 -4 -60 -20 -7 -13 -21
-20 -40 -20 -19 0 -33 -7 -40 -20 -7 -13 -21 -20 -40 -20 -19 0 -33 -7 -40
-20 -7 -13 -21 -20 -40 -20 -19 0 -33 -7 -40 -19 -6 -12 -23 -21 -43 -23 -28
-3 -33 -7 -37 -38 -4 -30 -9 -35 -35 -38 -19 -3 -43 -18 -66 -43 -21 -23 -45
-39 -58 -39 -16 0 -54 -32 -121 -100 -53 -55 -102 -100 -109 -100 -7 0 -11 20
-11 55 0 44 4 56 20 65 13 7 20 21 20 40 0 19 7 33 20 40 13 7 20 21 20 40 0
19 7 33 20 40 13 7 20 21 20 40 0 19 7 33 20 40 13 7 20 21 20 40 0 19 7 33
20 40 13 7 20 21 20 40 0 19 7 33 20 40 12 7 20 21 20 38 0 19 12 37 40 62 28
25 40 43 40 62 0 17 8 31 20 38 13 7 20 21 20 40 0 19 7 33 20 40 17 9 20 21
20 78 0 66 1 68 40 102 28 25 40 43 40 62 0 17 8 31 20 38 12 6 20 21 20 36 0
19 17 43 60 84 43 41 60 65 60 84 0 15 8 30 20 36 12 7 20 21 20 38 0 19 12
37 40 62 28 25 40 43 40 62 0 17 8 31 20 38 12 6 20 21 20 36 0 34 90 124 124
124 15 0 30 8 36 20 9 18 21 20 100 20 79 0 91 2 100 20 9 17 21 20 80 20 59
0 71 3 80 20 8 16 21 20 60 20 39 0 52 4 60 20 9 18 21 20 100 20 79 0 91 2
100 20 10 19 21 20 180 20 159 0 170 1 180 20 10 19 21 20 220 20 199 0 210 1
220 20 10 19 21 20 160 20 139 0 150 1 160 20 9 17 21 20 80 20 59 0 71 3 80
20 9 17 21 20 80 20 59 0 71 3 80 20 9 17 21 20 80 20 59 0 71 3 80 20 8 16
21 20 60 20 39 0 52 4 60 20 8 16 21 20 60 20 39 0 52 4 60 20 7 13 21 20 40
20 19 0 33 7 40 20 7 13 21 20 40 20 19 0 33 7 40 20 8 16 21 20 60 20 39 0
52 4 60 20 7 13 21 20 40 20 19 0 33 7 40 20 13 24 68 28 76 5z M5360 11380
c-10 -19 -21 -20 -160 -20 -139 0 -150 -1 -160 -20 -10 -19 -21 -20 -180 -20
-159 0 -170 -1 -180 -20 -9 -18 -21 -20 -100 -20 -79 0 -91 -2 -100 -20 -9
-17 -21 -20 -80 -20 -59 0 -71 -3 -80 -20 -10 -18 -21 -20 -120 -20 -99 0
-110 -2 -120 -20 -8 -16 -21 -20 -60 -20 -39 0 -52 -4 -60 -20 -7 -13 -21 -20
-40 -20 -19 0 -33 -7 -40 -20 -8 -16 -21 -20 -60 -20 -39 0 -52 -4 -60 -20 -8
-16 -21 -20 -60 -20 -39 0 -52 -4 -60 -20 -7 -13 -21 -20 -40 -20 -19 0 -33
-7 -40 -20 -8 -16 -21 -20 -60 -20 -39 0 -52 -4 -60 -20 -8 -16 -21 -20 -60
-20 -39 0 -52 -4 -60 -20 -7 -13 -21 -20 -40 -20 -19 0 -33 -7 -40 -20 -7 -13
-21 -20 -40 -20 -19 0 -33 -7 -40 -20 -7 -13 -21 -20 -40 -20 -19 0 -33 -7
-40 -20 -7 -13 -21 -20 -40 -20 -19 0 -33 -7 -40 -20 -8 -16 -21 -20 -58 -20
-42 0 -51 -4 -82 -40 -25 -28 -43 -40 -62 -40 -17 0 -31 -8 -38 -20 -7 -12
-21 -20 -38 -20 -19 0 -37 -12 -62 -40 -34 -39 -37 -40 -100 -40 -63 0 -66 -1
-100 -40 -23 -26 -44 -40 -60 -40 -16 0 -37 -14 -60 -40 -22 -25 -44 -40 -59
-40 -15 0 -43 -20 -81 -60 -36 -38 -66 -60 -80 -60 -14 0 -49 -28 -100 -80
-50 -51 -86 -80 -100 -80 -14 0 -50 -29 -100 -80 -49 -50 -86 -80 -99 -80 -29
0 -281 -252 -281 -280 0 -14 -43 -64 -120 -140 -79 -78 -120 -126 -120 -140 0
-14 -36 -56 -100 -120 -69 -68 -100 -106 -100 -122 0 -14 -15 -36 -40 -58 -26
-23 -40 -44 -40 -60 0 -16 -14 -37 -40 -60 -28 -25 -40 -43 -40 -62 0 -17 -8
-31 -20 -38 -13 -7 -20 -21 -20 -40 0 -19 -7 -33 -20 -40 -13 -7 -20 -21 -20
-40 0 -19 -7 -33 -20 -40 -13 -7 -20 -21 -20 -40 0 -19 -7 -33 -20 -40 -12 -7
-20 -21 -20 -38 0 -19 -12 -37 -40 -62 -35 -31 -40 -40 -40 -80 0 -40 -5 -49
-40 -80 -28 -25 -40 -43 -40 -62 0 -17 -8 -31 -20 -38 -16 -8 -20 -21 -20 -60
0 -39 -4 -52 -20 -60 -12 -7 -20 -21 -20 -38 0 -19 -12 -37 -40 -62 -39 -34
-40 -36 -40 -102 0 -57 -3 -69 -20 -78 -13 -7 -20 -21 -20 -40 0 -19 -7 -33
-20 -40 -16 -8 -20 -21 -20 -60 0 -39 -4 -52 -20 -60 -17 -9 -20 -21 -20 -80
0 -59 -3 -71 -20 -80 -17 -9 -20 -21 -20 -80 0 -59 -3 -71 -20 -80 -16 -8 -20
-21 -20 -60 0 -39 -4 -52 -20 -60 -18 -9 -20 -21 -20 -100 0 -79 -2 -91 -20
-100 -18 -9 -20 -21 -20 -100 0 -79 -2 -91 -20 -100 -18 -10 -20 -21 -20 -121
0 -102 -2 -111 -20 -116 -19 -5 -20 -14 -20 -323 0 -309 1 -318 20 -323 19 -5
20 -14 20 -156 0 -140 1 -151 20 -161 16 -8 20 -21 20 -60 0 -39 4 -52 20 -60
18 -10 20 -21 20 -140 0 -119 2 -130 20 -140 16 -8 20 -21 20 -60 0 -39 4 -52
20 -60 16 -8 20 -21 20 -60 0 -39 4 -52 20 -60 17 -9 20 -21 20 -80 0 -59 3
-71 20 -80 13 -7 20 -21 20 -40 0 -19 7 -33 20 -40 16 -8 20 -21 20 -60 0 -39
4 -52 20 -60 16 -8 20 -21 20 -60 0 -39 4 -52 20 -60 13 -7 20 -21 20 -40 0
-19 7 -33 20 -40 13 -7 20 -21 20 -40 0 -19 7 -33 20 -40 13 -7 20 -21 20 -40
0 -19 7 -33 20 -40 13 -7 20 -21 20 -40 0 -19 7 -33 20 -40 13 -7 20 -21 20
-40 0 -19 7 -33 20 -40 13 -7 20 -21 20 -40 0 -19 7 -33 20 -40 13 -7 20 -21
20 -40 0 -19 7 -33 20 -40 12 -7 20 -21 20 -38 0 -19 12 -37 40 -62 26 -23 40
-44 40 -60 0 -16 14 -37 40 -60 28 -25 40 -43 40 -62 0 -17 8 -31 20 -38 12
-7 20 -21 20 -38 0 -19 12 -37 40 -62 28 -25 40 -43 40 -62 0 -17 8 -31 20
-38 12 -6 20 -21 20 -36 0 -19 17 -43 60 -84 37 -36 60 -66 60 -80 0 -28 52
-80 80 -80 28 0 80 -52 80 -80 0 -14 41 -62 120 -140 77 -77 120 -126 120
-140 0 -28 132 -160 160 -160 14 0 76 -56 180 -160 107 -108 166 -160 181
-160 13 0 43 -23 79 -60 41 -43 65 -60 84 -60 15 0 30 -8 36 -21 9 -15 19 -19
43 -17 27 3 33 8 35 32 2 16 16 42 32 58 23 22 37 28 74 28 35 0 48 5 56 19 6
12 23 21 43 23 l32 3 3 128 3 127 -50 50 c-29 29 -59 50 -71 50 -14 0 -51 29
-100 80 -49 50 -86 80 -99 80 -30 0 -601 572 -601 601 0 13 -24 44 -60 79 -38
37 -60 66 -60 80 0 14 -22 43 -60 80 -40 38 -60 66 -60 81 0 15 -15 37 -40 59
-28 25 -40 43 -40 62 0 17 -8 31 -20 38 -12 7 -20 21 -20 38 0 19 -12 37 -40
62 -28 25 -40 43 -40 62 0 17 -8 31 -20 38 -13 7 -20 21 -20 40 0 19 -7 33
-20 40 -13 7 -20 21 -20 40 0 19 -7 33 -20 40 -12 7 -20 21 -20 38 0 19 -12
37 -40 62 -28 25 -40 43 -40 62 0 17 -8 31 -20 38 -13 7 -20 21 -20 40 0 19
-7 33 -20 40 -13 7 -20 21 -20 40 0 19 -7 33 -20 40 -13 7 -20 21 -20 40 0 19
-7 33 -20 40 -17 9 -20 21 -20 80 0 59 -3 71 -20 80 -13 7 -20 21 -20 40 0 19
-7 33 -20 40 -16 8 -20 21 -20 60 0 39 -4 52 -20 60 -17 9 -20 21 -20 80 0 59
-3 71 -20 80 -17 9 -20 21 -20 80 0 59 -3 71 -20 80 -17 9 -20 21 -20 80 0 59
-3 71 -20 80 -18 9 -20 21 -20 100 0 79 -2 91 -20 100 -18 10 -20 21 -20 120
0 99 -2 110 -20 120 -17 9 -20 21 -20 80 0 59 3 71 20 80 27 15 27 65 0 80
-18 9 -20 21 -20 99 0 80 2 90 22 105 l23 16 -22 16 c-21 15 -23 25 -23 105 0
78 2 90 20 99 17 9 20 21 20 80 0 59 3 71 20 80 18 10 20 21 20 140 0 119 2
130 20 140 18 9 20 21 20 100 0 79 2 91 20 100 17 9 20 21 20 80 0 59 3 71 20
80 16 8 20 21 20 60 0 39 4 52 20 60 16 8 20 21 20 60 0 39 4 52 20 60 13 7
20 21 20 40 0 19 7 33 20 40 16 8 20 21 20 60 0 39 4 52 20 60 13 7 20 21 20
40 0 19 7 33 20 40 12 7 20 21 20 38 0 19 12 37 40 62 35 31 40 40 40 80 0 40
5 49 40 80 28 25 40 43 40 62 0 17 8 31 20 38 12 7 20 21 20 38 0 19 12 37 40
62 28 25 40 43 40 62 0 17 8 31 20 38 12 7 20 21 20 38 0 19 12 37 40 62 26
23 40 44 40 60 0 16 14 37 40 60 26 23 40 44 40 60 0 16 14 37 40 60 25 22 40
44 40 58 0 16 25 49 80 102 50 49 80 86 80 99 0 29 132 161 160 161 14 0 83
62 200 180 120 121 186 180 200 180 14 0 51 30 100 80 51 52 86 80 100 80 14
0 44 22 80 60 38 40 66 60 81 60 15 0 37 15 59 40 23 26 44 40 60 40 16 0 37
14 60 40 23 26 44 40 60 40 16 0 37 14 60 40 25 28 43 40 62 40 17 0 31 8 38
20 7 12 21 20 38 20 19 0 37 12 62 40 25 28 43 40 62 40 17 0 31 8 38 20 7 13
21 20 40 20 19 0 33 7 40 20 7 13 21 20 40 20 19 0 33 7 40 20 7 13 21 20 40
20 19 0 33 7 40 20 7 13 21 20 40 20 19 0 33 7 40 20 8 16 21 20 60 20 39 0
52 4 60 20 9 17 21 20 80 20 59 0 71 3 80 20 9 17 21 20 80 20 59 0 71 3 80
20 7 13 21 20 40 20 19 0 33 7 40 20 8 16 21 20 60 20 39 0 52 4 60 20 9 18
21 20 100 20 79 0 91 2 100 20 8 16 21 20 60 20 39 0 52 4 60 20 9 17 21 20
80 20 59 0 71 3 80 20 10 19 21 20 180 20 159 0 170 1 180 20 10 19 21 20 420
20 399 0 410 1 420 20 8 16 21 20 60 20 39 0 52 4 60 20 6 12 21 20 36 20 19
0 43 17 84 60 41 43 65 60 84 60 15 0 30 8 36 20 7 12 21 20 38 20 19 0 37 12
62 40 25 28 43 40 62 40 17 0 31 8 38 20 6 12 21 20 36 20 37 0 86 52 82 87
l-3 28 -172 3 c-160 2 -173 4 -183 22 -10 19 -22 20 -180 20 -159 0 -170 1
-180 20 -10 19 -21 20 -200 20 -179 0 -190 -1 -200 -20z M9868 8850 c-16 -16
-28 -40 -28 -54 0 -15 -8 -30 -20 -36 -16 -8 -20 -21 -20 -60 0 -39 -4 -52
-20 -60 -16 -8 -20 -21 -20 -60 0 -39 -4 -52 -20 -60 -13 -7 -20 -21 -20 -40
0 -19 -7 -33 -20 -40 -19 -10 -20 -21 -20 -160 0 -139 1 -150 20 -160 13 -7
20 -21 20 -40 0 -19 7 -33 20 -40 13 -7 20 -21 20 -40 0 -19 7 -33 20 -40 18
-10 20 -21 20 -120 0 -99 2 -110 20 -120 18 -9 20 -21 20 -100 0 -79 2 -91 20
-100 17 -9 20 -21 20 -80 0 -59 3 -71 20 -80 19 -10 20 -21 20 -220 0 -199 1
-210 20 -220 19 -10 20 -21 20 -180 0 -159 1 -170 20 -180 18 -9 20 -21 20
-100 0 -79 -2 -91 -20 -100 -19 -10 -20 -21 -20 -200 0 -179 -1 -190 -20 -200
-19 -10 -20 -21 -20 -180 0 -159 -1 -170 -20 -180 -16 -8 -20 -21 -20 -60 0
-39 -4 -52 -20 -60 -17 -9 -20 -21 -20 -80 0 -59 -3 -71 -20 -80 -17 -9 -20
-21 -20 -80 0 -59 -3 -71 -20 -80 -16 -8 -20 -21 -20 -60 0 -39 -4 -52 -20
-60 -16 -8 -20 -21 -20 -60 0 -39 -4 -52 -20 -60 -16 -8 -20 -21 -20 -60 0
-39 -4 -52 -20 -60 -16 -8 -20 -21 -20 -60 0 -39 -4 -52 -20 -60 -13 -7 -20
-21 -20 -40 0 -19 -7 -33 -20 -40 -16 -8 -20 -21 -20 -60 0 -39 -4 -52 -20
-60 -12 -7 -20 -21 -20 -38 0 -19 -12 -37 -40 -62 -26 -23 -40 -44 -40 -60 0
-16 -14 -37 -40 -60 -28 -25 -40 -43 -40 -62 0 -17 -8 -31 -20 -38 -13 -7 -20
-21 -20 -40 0 -19 -7 -33 -20 -40 -13 -7 -20 -21 -20 -40 0 -19 -7 -33 -20
-40 -12 -7 -20 -21 -20 -38 0 -19 -12 -37 -40 -62 -26 -23 -40 -44 -40 -60 0
-16 -14 -37 -40 -60 -26 -23 -40 -44 -40 -60 0 -16 -14 -37 -40 -60 -26 -23
-40 -44 -40 -60 0 -16 -14 -37 -40 -60 -25 -22 -40 -44 -40 -58 0 -16 -31 -54
-100 -122 -64 -63 -100 -106 -100 -120 0 -28 -92 -120 -120 -120 -30 0 -78
-51 -82 -86 -2 -24 -8 -30 -32 -32 -22 -3 -71 -46 -207 -183 -121 -121 -185
-179 -200 -179 -13 0 -44 -23 -79 -60 -36 -38 -66 -60 -80 -60 -14 0 -49 -28
-100 -80 -53 -55 -86 -80 -102 -80 -14 0 -36 -15 -58 -40 -25 -28 -43 -40 -62
-40 -17 0 -31 -8 -38 -20 -7 -12 -21 -20 -38 -20 -19 0 -37 -12 -62 -40 -25
-28 -43 -40 -62 -40 -17 0 -31 -8 -38 -20 -7 -13 -21 -20 -40 -20 -19 0 -33
-7 -40 -20 -7 -13 -21 -20 -40 -20 -19 0 -33 -7 -40 -20 -7 -12 -21 -20 -38
-20 -19 0 -37 -12 -62 -40 -31 -36 -40 -40 -82 -40 -37 0 -50 -4 -58 -20 -7
-13 -21 -20 -40 -20 -19 0 -33 -7 -40 -20 -9 -18 -21 -20 -100 -20 -79 0 -91
-2 -100 -20 -8 -16 -21 -20 -60 -20 -39 0 -52 -4 -60 -20 -7 -13 -21 -20 -40
-20 -19 0 -33 -7 -40 -20 -9 -17 -21 -20 -80 -20 -59 0 -71 -3 -80 -20 -9 -17
-21 -20 -80 -20 -59 0 -71 -3 -80 -20 -9 -17 -21 -20 -80 -20 -59 0 -71 -3
-80 -20 -10 -19 -21 -20 -160 -20 -139 0 -150 -1 -160 -20 -10 -19 -21 -20
-160 -20 -139 0 -150 -1 -160 -20 -10 -19 -21 -20 -360 -20 -339 0 -350 1
-360 20 -10 19 -21 20 -160 20 -140 0 -150 1 -160 20 -10 19 -19 20 -123 18
l-112 -3 -3 -92 c-2 -80 -5 -94 -22 -103 -15 -8 -20 -21 -20 -56 0 -45 -3 -49
-80 -123 -44 -43 -80 -83 -80 -89 0 -7 15 -12 35 -12 24 0 37 -6 45 -20 10
-19 21 -20 160 -20 139 0 150 -1 160 -20 10 -19 21 -20 180 -20 159 0 170 -1
180 -20 10 -19 21 -20 360 -20 339 0 350 1 360 20 10 19 21 20 180 20 159 0
170 1 180 20 10 19 21 20 160 20 139 0 150 1 160 20 8 16 21 20 60 20 39 0 52
4 60 20 9 17 21 20 80 20 59 0 71 3 80 20 9 17 21 20 80 20 59 0 71 3 80 20 8
16 21 20 60 20 39 0 52 4 60 20 7 13 21 20 40 20 19 0 33 7 40 20 9 17 21 20
80 20 59 0 71 3 80 20 7 13 21 20 40 20 19 0 33 7 40 20 7 13 21 20 40 20 19
0 33 7 40 20 8 16 21 20 60 20 39 0 52 4 60 20 7 13 21 20 40 20 19 0 33 7 40
20 7 13 21 20 40 20 19 0 33 7 40 20 8 16 21 20 58 20 42 0 51 4 82 40 25 28
43 40 62 40 17 0 31 8 38 20 7 12 21 20 38 20 19 0 37 12 62 40 25 28 43 40
62 40 17 0 31 8 38 20 8 16 21 20 60 20 39 0 52 4 60 20 7 12 21 20 38 20 19
0 37 12 62 40 23 26 44 40 60 40 16 0 37 14 60 40 22 25 44 40 59 40 15 0 43
20 81 60 36 37 66 60 80 60 14 0 55 34 120 100 62 63 106 100 119 100 29 0
441 412 441 440 0 14 43 64 119 139 89 88 120 126 123 147 2 24 8 30 32 32 37
5 126 92 126 124 0 14 15 36 40 58 25 22 40 44 40 59 0 15 20 43 60 81 43 41
60 65 60 84 0 15 8 30 20 36 13 7 20 21 20 40 0 19 7 33 20 40 12 7 20 21 20
38 0 19 12 37 40 62 26 23 40 44 40 60 0 16 14 37 40 60 28 25 40 43 40 62 0
17 8 31 20 38 13 7 20 21 20 40 0 19 7 33 20 40 13 7 20 21 20 40 0 19 7 33
20 40 13 7 20 21 20 40 0 19 7 33 20 40 16 8 20 21 20 58 0 42 4 51 40 82 28
25 40 43 40 62 0 17 8 31 20 38 16 8 20 21 20 60 0 39 4 52 20 60 13 7 20 21
20 40 0 19 7 33 20 40 16 8 20 21 20 60 0 39 4 52 20 60 16 8 20 21 20 60 0
39 4 52 20 60 16 8 20 21 20 60 0 39 4 52 20 60 17 9 20 21 20 80 0 59 3 71
20 80 17 9 20 21 20 80 0 59 3 71 20 80 16 8 20 21 20 60 0 39 4 52 20 60 17
9 20 21 20 80 0 59 3 71 20 80 19 10 20 21 20 160 0 139 1 150 20 160 20 11
20 21 20 580 0 559 0 569 -20 580 -18 10 -20 21 -20 140 0 119 -2 130 -20 140
-18 10 -20 21 -20 140 0 119 -2 130 -20 140 -17 9 -20 21 -20 80 0 59 -3 71
-20 80 -17 9 -20 21 -20 80 0 59 -3 71 -20 80 -16 8 -20 21 -20 60 0 39 -4 52
-20 60 -16 8 -20 21 -20 60 0 39 -4 52 -20 60 -16 8 -20 21 -20 60 0 39 -4 52
-20 60 -13 7 -20 21 -20 40 0 19 -7 33 -20 40 -16 8 -20 21 -20 60 0 39 -4 52
-20 60 -13 7 -20 21 -20 40 0 19 -7 33 -20 40 -16 8 -20 21 -20 57 0 41 -4 50
-39 82 -35 32 -40 43 -43 86 -3 48 -4 50 -33 52 -22 2 -37 -5 -57 -27z M2748
2410 c-33 -34 -36 -75 -8 -90 12 -7 20 -21 20 -38 0 -19 12 -37 40 -62 24 -21
40 -44 40 -58 0 -33 211 -242 244 -242 15 0 30 -8 36 -20 9 -17 21 -20 80 -20
59 0 71 -3 80 -20 7 -13 21 -20 40 -20 19 0 33 -7 40 -20 7 -13 21 -20 40 -20
19 0 33 -7 40 -20 8 -16 21 -20 60 -20 39 0 52 -4 60 -20 7 -13 21 -20 40 -20
19 0 33 -7 40 -19 6 -12 23 -21 43 -23 29 -3 32 -6 32 -38 l0 -35 -92 -3 c-84
-2 -93 -1 -103 18 -10 18 -20 20 -100 20 -79 0 -91 2 -100 20 -7 13 -21 20
-40 20 -19 0 -33 7 -40 20 -7 13 -21 20 -40 20 -19 0 -33 7 -40 20 -8 16 -21
20 -60 20 -39 0 -52 4 -60 20 -7 12 -21 20 -38 20 -19 0 -37 12 -62 40 -31 35
-40 40 -78 40 -41 0 -48 4 -122 80 -50 51 -86 80 -100 80 -12 0 -30 10 -40 23
l-18 22 -51 -52 c-33 -34 -51 -61 -51 -76 0 -14 -10 -32 -22 -41 l-23 -16 23
-16 c12 -9 22 -27 22 -40 0 -35 170 -204 204 -204 15 0 30 -8 36 -20 7 -12 21
-20 38 -20 19 0 37 -12 62 -40 25 -28 43 -40 62 -40 17 0 31 -8 38 -20 7 -13
21 -20 40 -20 19 0 33 -7 40 -20 7 -13 21 -20 40 -20 19 0 33 -7 40 -20 8 -16
21 -20 60 -20 39 0 52 -4 60 -20 9 -18 21 -20 100 -20 79 0 91 -2 100 -20 10
-19 21 -20 160 -20 139 0 150 1 160 20 6 12 21 20 36 20 33 0 84 51 84 84 0
15 8 30 20 36 18 9 20 23 22 143 l3 132 32 3 c20 2 37 11 43 22 6 11 23 20 43
22 28 3 32 7 35 35 2 20 11 37 23 44 15 8 19 19 17 42 -3 31 -5 32 -55 35 -40
2 -55 8 -63 23 -10 17 -22 19 -140 19 -119 0 -130 2 -140 20 -9 18 -21 20
-100 20 -79 0 -91 2 -100 20 -8 16 -21 20 -60 20 -39 0 -52 4 -60 20 -7 13
-21 20 -40 20 -19 0 -33 7 -40 20 -7 13 -21 20 -40 20 -19 0 -33 7 -40 20 -7
12 -21 20 -38 20 -19 0 -37 12 -62 40 -22 25 -44 40 -59 40 -15 0 -43 20 -81
60 -41 43 -65 60 -84 60 -15 0 -30 8 -36 20 -16 30 -59 25 -92 -10z M2487
1474 c-4 -4 -7 -19 -7 -33 0 -18 -13 -37 -40 -61 -28 -25 -40 -43 -40 -62 0
-17 -8 -31 -20 -38 -12 -7 -20 -21 -20 -38 0 -19 -12 -37 -40 -62 -36 -31 -40
-40 -40 -82 0 -37 -4 -50 -20 -58 -17 -9 -20 -21 -20 -80 0 -59 -3 -71 -20
-80 -18 -10 -20 -21 -20 -120 0 -99 -2 -110 -20 -120 -18 -9 -20 -21 -20 -100
0 -79 2 -91 20 -100 18 -9 20 -21 20 -100 0 -78 2 -91 19 -100 15 -8 21 -23
23 -63 3 -50 4 -52 35 -55 24 -2 34 2 43 17 7 13 21 21 38 21 16 0 32 8 40 20
20 33 40 25 44 -18 3 -37 3 -37 51 -40 47 -3 49 -2 106 57 39 41 67 61 82 61
15 0 37 15 59 40 22 25 44 40 59 40 15 0 43 20 81 60 36 37 66 60 80 60 14 0
55 34 120 100 64 65 106 100 120 100 30 0 80 53 80 84 0 15 8 30 20 36 13 7
20 21 20 40 0 19 7 33 20 40 13 7 20 21 20 40 0 19 7 33 20 40 17 9 20 21 20
80 0 60 3 71 21 80 17 10 20 19 17 63 -3 48 -5 52 -30 55 -22 3 -38 -7 -78
-47 -45 -45 -50 -54 -50 -95 0 -35 -5 -48 -20 -56 -16 -8 -20 -21 -20 -60 0
-39 -4 -52 -20 -60 -13 -7 -20 -21 -20 -40 0 -19 -7 -33 -20 -40 -12 -6 -20
-21 -20 -36 0 -35 -209 -244 -244 -244 -15 0 -30 -8 -36 -20 -9 -16 -21 -20
-65 -20 -47 0 -55 3 -55 19 0 10 9 21 20 24 14 3 20 14 20 32 0 20 19 46 80
105 77 75 80 80 80 124 0 35 4 48 20 56 17 9 20 21 20 80 0 59 3 71 20 80 19
10 20 19 18 123 l-3 112 -27 3 c-22 3 -38 -7 -78 -47 -28 -28 -50 -59 -50 -71
0 -14 -42 -63 -120 -140 -84 -83 -120 -126 -120 -142 0 -14 -15 -36 -40 -58
-26 -23 -40 -44 -40 -60 0 -16 -14 -37 -40 -60 -28 -25 -40 -43 -40 -62 0 -17
-8 -31 -20 -38 -13 -7 -20 -21 -20 -40 0 -19 -7 -33 -19 -40 -12 -6 -21 -23
-23 -43 -3 -29 -6 -32 -38 -32 l-35 0 -3 232 c-2 224 -2 232 18 243 16 8 20
21 20 60 0 39 4 52 20 60 16 8 20 21 20 60 0 39 4 52 20 60 13 7 20 21 20 40
0 19 7 33 20 40 12 6 20 21 20 36 0 19 17 43 61 85 59 57 60 59 57 106 l-3 48
-50 3 c-28 2 -54 0 -58 -4z M3800 540 c-9 -18 -21 -20 -100 -20 -79 0 -91 -2
-100 -20 -9 -17 -21 -20 -80 -20 -59 0 -71 -3 -80 -20 -8 -16 -21 -20 -60 -20
-39 0 -52 -4 -60 -20 -7 -12 -21 -20 -38 -20 -19 0 -37 -12 -62 -40 -25 -28
-43 -40 -62 -40 -17 0 -31 -8 -38 -20 -6 -12 -21 -20 -36 -20 -37 0 -86 -52
-82 -87 l3 -28 92 -3 c84 -2 93 -1 103 18 10 18 20 20 120 20 99 0 110 2 120
20 9 17 21 20 80 20 59 0 71 3 80 20 10 19 21 20 160 20 139 0 150 1 160 20
10 19 21 20 340 20 319 0 330 -1 340 -20 9 -18 21 -20 100 -20 79 0 91 -2 100
-20 10 -18 21 -20 120 -20 99 0 110 -2 120 -20 10 -18 21 -20 120 -20 99 0
110 -2 120 -20 7 -13 21 -20 40 -20 19 0 33 -7 40 -20 9 -18 21 -20 100 -20
79 0 91 -2 100 -20 9 -17 21 -20 76 -20 56 0 69 -3 85 -22 l19 -23 19 23 c24
28 67 29 81 2 10 -19 21 -20 160 -20 139 0 150 1 160 20 9 18 21 20 100 20 79
0 91 2 100 20 9 17 21 20 80 20 59 0 71 3 80 20 9 18 21 20 100 20 79 0 91 2
100 20 10 20 21 20 460 20 439 0 450 0 460 -20 9 -18 21 -20 100 -20 79 0 91
-2 100 -20 10 -18 21 -20 120 -20 99 0 110 -2 120 -20 10 -18 21 -20 140 -20
119 0 130 -2 140 -20 9 -18 21 -20 101 -20 82 0 91 -2 96 -20 5 -19 14 -20
260 -20 246 0 255 1 260 20 7 26 33 26 40 0 7 -26 39 -26 46 0 4 17 14 20 56
20 40 0 52 4 61 20 9 17 21 20 80 20 59 0 71 3 80 20 8 16 21 20 60 20 39 0
52 4 60 20 8 16 21 20 60 20 39 0 52 4 60 20 7 13 21 20 40 20 19 0 33 7 40
20 7 13 21 20 40 20 19 0 33 7 40 19 6 12 23 21 43 23 27 2 33 8 35 31 7 59
-92 115 -118 67 -9 -17 -21 -20 -80 -20 -59 0 -71 -3 -80 -20 -9 -18 -21 -20
-100 -20 -79 0 -91 -2 -100 -20 -10 -19 -21 -20 -160 -20 -139 0 -150 -1 -160
-20 -10 -19 -21 -20 -180 -20 -159 0 -170 1 -180 20 -10 18 -21 20 -140 20
-119 0 -130 2 -140 20 -9 17 -21 20 -80 20 -59 0 -71 3 -80 20 -10 18 -21 20
-120 20 -99 0 -110 2 -120 20 -10 18 -21 20 -120 20 -99 0 -110 2 -120 20 -10
18 -21 20 -120 20 -99 0 -110 2 -120 20 -10 19 -21 20 -400 20 -379 0 -390 -1
-400 -20 -9 -18 -21 -20 -100 -20 -79 0 -91 -2 -100 -20 -8 -16 -21 -20 -60
-20 -39 0 -52 -4 -60 -20 -9 -18 -21 -20 -100 -20 -79 0 -91 -2 -100 -20 -10
-19 -21 -20 -240 -20 -219 0 -230 1 -240 20 -10 18 -21 20 -120 20 -99 0 -110
2 -120 20 -9 17 -21 20 -80 20 -59 0 -71 3 -80 20 -8 16 -21 20 -60 20 -39 0
-52 4 -60 20 -10 18 -21 20 -120 20 -99 0 -110 2 -120 20 -10 18 -21 20 -120
20 -99 0 -110 2 -120 20 -10 20 -21 20 -500 20 -479 0 -490 0 -500 -20z"/>
</g>
</svg>
